<svg xmlns="http://www.w3.org/2000/svg" viewBox="0 0 48 48" shape-rendering="crispEdges">
  <g fill="#3a5cff">
    <rect x="10" y="12" width="28" height="3"></rect>
    <rect x="7" y="15" width="34" height="3"></rect>
    <rect x="6" y="18" width="36" height="3"></rect>
    <rect x="6" y="21" width="36" height="3"></rect>
    <rect x="6" y="24" width="36" height="3"></rect>
    <rect x="8" y="27" width="32" height="3"></rect>
    <rect x="11" y="30" width="29" height="3"></rect>
    <rect x="15" y="33" width="25" height="3"></rect>
  </g>
  <g fill="#6ec0ff">
    <rect x="10" y="12" width="14" height="2"></rect>
    <rect x="6" y="18" width="2" height="6"></rect>
  </g>
  <rect x="33" y="24" width="4" height="4" fill="#0b0d2a"></rect>
  <g fill="#c8c8c8">
    <rect x="15" y="27" width="2" height="9"></rect>
    <rect x="15" y="34" width="11" height="2"></rect>
    <rect x="24" y="30" width="2" height="7"></rect>
  </g>
  <g fill="#fff">
    <rect x="20" y="17" width="2" height="8"></rect>
    <rect x="22" y="17" width="2" height="2"></rect>
    <rect x="22" y="23" width="2" height="2"></rect>
    <rect x="26" y="17" width="2" height="8"></rect>
  </g>
</svg>