<svg xmlns="http://www.w3.org/2000/svg" viewBox="0 0 64 64" shape-rendering="crispEdges" style="image-rendering:pixelated">
  
  <rect width="64" height="64" fill="#0b0d2a"></rect>
  
  <g fill="#c8102e">
    <rect x="14" y="16" width="36" height="4"></rect>
    <rect x="10" y="20" width="44" height="4"></rect>
    <rect x="8" y="24" width="48" height="4"></rect>
    <rect x="8" y="28" width="48" height="4"></rect>
    <rect x="8" y="32" width="48" height="4"></rect>
    <rect x="10" y="36" width="44" height="4"></rect>
    <rect x="14" y="40" width="40" height="4"></rect>
    <rect x="20" y="44" width="34" height="4"></rect>
  </g>
  
  <g fill="#ff8a8a">
    <rect x="14" y="16" width="20" height="2"></rect>
    <rect x="10" y="20" width="4" height="2"></rect>
    <rect x="8" y="24" width="2" height="8"></rect>
  </g>
  
  <rect x="44" y="32" width="6" height="6" fill="#0b0d2a"></rect>
  <rect x="46" y="34" width="2" height="2" fill="#1a1a1a"></rect>
  
  <g fill="#c8c8c8">
    <rect x="20" y="36" width="2" height="12"></rect>
    <rect x="20" y="46" width="14" height="2"></rect>
    <rect x="32" y="40" width="2" height="10"></rect>
  </g>
  
  <g fill="#ffc83d">
    <rect x="26" y="22" width="8" height="2"></rect>
    <rect x="24" y="24" width="2" height="2"></rect>
    <rect x="24" y="26" width="8" height="2"></rect>
    <rect x="32" y="28" width="2" height="2"></rect>
    <rect x="26" y="30" width="8" height="2"></rect>
    <rect x="29" y="20" width="2" height="14"></rect>
  </g>
</svg>